<?xml version="1.0" encoding="UTF-8"?>
<svg version="1.1" xmlns="http://www.w3.org/2000/svg" width="75" height="29">
<path d="M0 0 C24.75 0 49.5 0 75 0 C75 9.57 75 19.14 75 29 C50.25 29 25.5 29 0 29 C0 19.43 0 9.86 0 0 Z " fill="#0F0E16" transform="translate(0,0)"/>
<path d="M0 0 C1.60875 -0.04125 3.2175 -0.0825 4.875 -0.125 C5.77992187 -0.14820313 6.68484375 -0.17140625 7.6171875 -0.1953125 C10 0 10 0 12 2 C12.265625 3.875 12.265625 3.875 12.25 6 C12.25515625 6.70125 12.2603125 7.4025 12.265625 8.125 C12 10 12 10 10 12 C6.875 12.125 6.875 12.125 4 12 C3.67 13.32 3.34 14.64 3 16 C2.01 16 1.02 16 0 16 C0 10.72 0 5.44 0 0 Z " fill="#907BF5" transform="translate(34,10)"/>
<path d="M0 0 C4.29 0 8.58 0 13 0 C13 1.32 13 2.64 13 4 C11.68 4 10.36 4 9 4 C9 7.96 9 11.92 9 16 C7.35 16 5.7 16 4 16 C4 12.04 4 8.08 4 4 C2.68 4 1.36 4 0 4 C0 2.68 0 1.36 0 0 Z " fill="#EAC05E" transform="translate(56,6)"/>
<path d="M0 0 C2.97 0 5.94 0 9 0 C9 0.99 9 1.98 9 3 C7.02 3 5.04 3 3 3 C3 4.32 3 5.64 3 7 C4.98 7 6.96 7 9 7 C9 7.99 9 8.98 9 10 C7.02 10 5.04 10 3 10 C3 11.98 3 13.96 3 16 C2.01 16 1.02 16 0 16 C0 10.72 0 5.44 0 0 Z " fill="#786AF6" transform="translate(9,6)"/>
<path d="M0 0 C1.65 0 3.3 0 5 0 C5 5.28 5 10.56 5 16 C3.68 16 2.36 16 1 16 C0.67 10.72 0.34 5.44 0 0 Z " fill="#796AE8" transform="translate(19,6)"/>
<path d="M0 0 C1.32 0 2.64 0 4 0 C4 5.28 4 10.56 4 16 C2.68 16 1.36 16 0 16 C0 10.72 0 5.44 0 0 Z " fill="#F7CA63" transform="translate(51,6)"/>
<path d="M0 0 C1.65 0 3.3 0 5 0 C5 3.96 5 7.92 5 12 C3.68 12 2.36 12 1 12 C0.67 8.04 0.34 4.08 0 0 Z " fill="#8270EC" transform="translate(26,10)"/>
<path d="M0 0 C2.42130331 3.63195496 2.21022785 5.38349348 2.125 9.6875 C2.10695313 10.86699219 2.08890625 12.04648437 2.0703125 13.26171875 C2.03550781 14.61716797 2.03550781 14.61716797 2 16 C1.67 16 1.34 16 1 16 C0.67 13.03 0.34 10.06 0 7 C-1.98 7 -3.96 7 -6 7 C-6 5.68 -6 4.36 -6 3 C-4.02 3 -2.04 3 0 3 C0 2.01 0 1.02 0 0 Z " fill="#1F1D3B" transform="translate(18,6)"/>
<path d="M0 0 C1.65 0.33 3.3 0.66 5 1 C4.67 2.65 4.34 4.3 4 6 C2.35 5.67 0.7 5.34 -1 5 C-0.67 3.35 -0.34 1.7 0 0 Z " fill="#1F1C34" transform="translate(38,13)"/>
</svg>
